<svg width="276" height="73" viewBox="0 0 276 73" fill="none" xmlns="http://www.w3.org/2000/svg">
<path d="M71.3673 36.5C71.3673 54.9493 56.1155 70 37.1837 70C18.2518 70 3 54.9493 3 36.5C3 18.0507 18.2518 3 37.1837 3C56.1155 3 71.3673 18.0507 71.3673 36.5Z" stroke="#35B9E3" stroke-width="6"/>
<path d="M39.062 46.1366H40.6899C42.3177 46.1366 43.6701 44.7108 43.6701 42.99C43.6701 40.8512 42.8937 40.4333 41.6165 39.9908L39.0871 39.1304V46.1366H39.062Z" fill="#3FB9DF"/>
<path d="M37.1086 11.6661C23.2844 11.7152 12.0899 22.7531 12.1399 36.3231C12.19 49.8931 23.4347 60.8819 37.2589 60.8327C51.083 60.7836 62.2776 49.7456 62.2275 36.1756C62.1774 22.6056 50.9328 11.6415 37.1086 11.6661ZM42.8436 36.4952C44.797 37.159 47.4266 38.5848 47.4266 42.9852C47.4266 46.7711 44.3963 49.8194 40.6899 49.8194H39.062V51.2452C39.062 52.2531 38.2105 53.089 37.1837 53.089C36.1569 53.089 35.3054 52.2531 35.3054 51.2452V49.8194H34.4039C30.2967 49.8194 26.9659 46.4269 26.9659 42.2477C26.9659 41.2398 27.8174 40.404 28.8441 40.404C29.8709 40.404 30.7224 41.2398 30.7224 42.2477C30.7224 44.3865 32.3753 46.1319 34.4039 46.1319H35.3054V37.8227L31.5238 36.4952C29.5704 35.8315 26.9408 34.4056 26.9408 30.0052C26.9408 26.2194 29.9711 23.1711 33.6776 23.1711H35.3054V21.7452C35.3054 20.7373 36.1569 19.9015 37.1837 19.9015C38.2105 19.9015 39.062 20.7373 39.062 21.7452V23.1711H39.9636C44.0708 23.1711 47.4016 26.5636 47.4016 30.7427C47.4016 31.7506 46.5501 32.5865 45.5233 32.5865C44.4965 32.5865 43.645 31.7506 43.645 30.7427C43.645 28.604 41.9921 26.8586 39.9636 26.8586H39.062V35.1677L42.8436 36.4952Z" fill="#3FB9DF"/>
<path d="M30.7274 30.0296C30.7274 32.1684 31.5038 32.5863 32.781 33.0288L35.3104 33.8892V26.8584H33.6826C32.0547 26.8584 30.7274 28.2842 30.7274 30.0296Z" fill="#3FB9DF"/>
<path d="M97.8033 26.43V51H91.8183V26.43H97.8033ZM114.041 31.26C116.327 31.26 118.147 32.0067 119.501 33.5C120.877 34.97 121.566 37 121.566 39.59V51H115.616V40.395C115.616 39.0883 115.277 38.0733 114.601 37.35C113.924 36.6267 113.014 36.265 111.871 36.265C110.727 36.265 109.817 36.6267 109.141 37.35C108.464 38.0733 108.126 39.0883 108.126 40.395V51H102.141V31.47H108.126V34.06C108.732 33.1967 109.549 32.52 110.576 32.03C111.602 31.5167 112.757 31.26 114.041 31.26ZM134.51 45.4L138.745 31.47H145.115L138.185 51H130.8L123.87 31.47H130.275L134.51 45.4ZM166.044 40.92C166.044 41.48 166.009 42.0633 165.939 42.67H152.394C152.487 43.8833 152.872 44.8167 153.549 45.47C154.249 46.1 155.1 46.415 156.104 46.415C157.597 46.415 158.635 45.785 159.219 44.525H165.589C165.262 45.8083 164.667 46.9633 163.804 47.99C162.964 49.0167 161.902 49.8217 160.619 50.405C159.335 50.9883 157.9 51.28 156.314 51.28C154.4 51.28 152.697 50.8717 151.204 50.055C149.71 49.2383 148.544 48.0717 147.704 46.555C146.864 45.0383 146.444 43.265 146.444 41.235C146.444 39.205 146.852 37.4317 147.669 35.915C148.509 34.3983 149.675 33.2317 151.169 32.415C152.662 31.5983 154.377 31.19 156.314 31.19C158.204 31.19 159.884 31.5867 161.354 32.38C162.824 33.1733 163.967 34.305 164.784 35.775C165.624 37.245 166.044 38.96 166.044 40.92ZM159.919 39.345C159.919 38.3183 159.569 37.5017 158.869 36.895C158.169 36.2883 157.294 35.985 156.244 35.985C155.24 35.985 154.389 36.2767 153.689 36.86C153.012 37.4433 152.592 38.2717 152.429 39.345H159.919ZM177.146 51.28C175.443 51.28 173.926 50.9883 172.596 50.405C171.266 49.8217 170.216 49.0283 169.446 48.025C168.676 46.9983 168.244 45.855 168.151 44.595H174.066C174.136 45.2717 174.451 45.82 175.011 46.24C175.571 46.66 176.259 46.87 177.076 46.87C177.823 46.87 178.394 46.73 178.791 46.45C179.211 46.1467 179.421 45.7617 179.421 45.295C179.421 44.735 179.129 44.3267 178.546 44.07C177.963 43.79 177.018 43.4867 175.711 43.16C174.311 42.8333 173.144 42.495 172.211 42.145C171.278 41.7717 170.473 41.2 169.796 40.43C169.119 39.6367 168.781 38.575 168.781 37.245C168.781 36.125 169.084 35.11 169.691 34.2C170.321 33.2667 171.231 32.5317 172.421 31.995C173.634 31.4583 175.069 31.19 176.726 31.19C179.176 31.19 181.101 31.7967 182.501 33.01C183.924 34.2233 184.741 35.8333 184.951 37.84H179.421C179.328 37.1633 179.024 36.6267 178.511 36.23C178.021 35.8333 177.368 35.635 176.551 35.635C175.851 35.635 175.314 35.775 174.941 36.055C174.568 36.3117 174.381 36.6733 174.381 37.14C174.381 37.7 174.673 38.12 175.256 38.4C175.863 38.68 176.796 38.96 178.056 39.24C179.503 39.6133 180.681 39.9867 181.591 40.36C182.501 40.71 183.294 41.2933 183.971 42.11C184.671 42.9033 185.033 43.9767 185.056 45.33C185.056 46.4733 184.729 47.5 184.076 48.41C183.446 49.2967 182.524 49.9967 181.311 50.51C180.121 51.0233 178.733 51.28 177.146 51.28ZM199.603 45.925V51H196.558C194.388 51 192.696 50.475 191.483 49.425C190.269 48.3517 189.663 46.6133 189.663 44.21V36.44H187.283V31.47H189.663V26.71H195.648V31.47H199.568V36.44H195.648V44.28C195.648 44.8633 195.788 45.2833 196.068 45.54C196.348 45.7967 196.814 45.925 197.468 45.925H199.603Z" fill="black"/>
<path d="M226.663 34.2C226.22 33.3833 225.578 32.765 224.738 32.345C223.922 31.9017 222.953 31.68 221.833 31.68C219.897 31.68 218.345 32.3217 217.178 33.605C216.012 34.865 215.428 36.5567 215.428 38.68C215.428 40.9433 216.035 42.7167 217.248 44C218.485 45.26 220.177 45.89 222.323 45.89C223.793 45.89 225.03 45.5167 226.033 44.77C227.06 44.0233 227.807 42.95 228.273 41.55H220.678V37.14H233.698V42.705C233.255 44.1983 232.497 45.5867 231.423 46.87C230.373 48.1533 229.032 49.1917 227.398 49.985C225.765 50.7783 223.922 51.175 221.868 51.175C219.442 51.175 217.272 50.65 215.358 49.6C213.468 48.5267 211.987 47.045 210.913 45.155C209.863 43.265 209.338 41.1067 209.338 38.68C209.338 36.2533 209.863 34.095 210.913 32.205C211.987 30.2917 213.468 28.81 215.358 27.76C217.248 26.6867 219.407 26.15 221.833 26.15C224.773 26.15 227.247 26.8617 229.253 28.285C231.283 29.7083 232.625 31.68 233.278 34.2H226.663ZM245.904 51.28C243.99 51.28 242.264 50.8717 240.724 50.055C239.207 49.2383 238.005 48.0717 237.119 46.555C236.255 45.0383 235.824 43.265 235.824 41.235C235.824 39.2283 236.267 37.4667 237.154 35.95C238.04 34.41 239.254 33.2317 240.794 32.415C242.334 31.5983 244.06 31.19 245.974 31.19C247.887 31.19 249.614 31.5983 251.154 32.415C252.694 33.2317 253.907 34.41 254.794 35.95C255.68 37.4667 256.124 39.2283 256.124 41.235C256.124 43.2417 255.669 45.015 254.759 46.555C253.872 48.0717 252.647 49.2383 251.084 50.055C249.544 50.8717 247.817 51.28 245.904 51.28ZM245.904 46.1C247.047 46.1 248.015 45.68 248.809 44.84C249.625 44 250.034 42.7983 250.034 41.235C250.034 39.6717 249.637 38.47 248.844 37.63C248.074 36.79 247.117 36.37 245.974 36.37C244.807 36.37 243.839 36.79 243.069 37.63C242.299 38.4467 241.914 39.6483 241.914 41.235C241.914 42.7983 242.287 44 243.034 44.84C243.804 45.68 244.76 46.1 245.904 46.1ZM267.174 25.555L266.474 42.32H261.399L260.699 25.555H267.174ZM264.024 51.28C262.974 51.28 262.11 50.9767 261.434 50.37C260.78 49.74 260.454 48.97 260.454 48.06C260.454 47.1267 260.78 46.345 261.434 45.715C262.11 45.085 262.974 44.77 264.024 44.77C265.05 44.77 265.89 45.085 266.544 45.715C267.22 46.345 267.559 47.1267 267.559 48.06C267.559 48.97 267.22 49.74 266.544 50.37C265.89 50.9767 265.05 51.28 264.024 51.28Z" fill="#3DB9E0"/>
</svg>
