<svg width="270" height="73" viewBox="0 0 270 73" fill="none" xmlns="http://www.w3.org/2000/svg">
<circle cx="36.5" cy="36.5" r="33.5" stroke="#695CFE" stroke-width="6"/>
<path d="M96.155 26.43V51H90.17V26.43H96.155ZM112.392 31.26C114.679 31.26 116.499 32.0067 117.852 33.5C119.229 34.97 119.917 37 119.917 39.59V51H113.967V40.395C113.967 39.0883 113.629 38.0733 112.952 37.35C112.276 36.6267 111.366 36.265 110.222 36.265C109.079 36.265 108.169 36.6267 107.492 37.35C106.816 38.0733 106.477 39.0883 106.477 40.395V51H100.492V31.47H106.477V34.06C107.084 33.1967 107.901 32.52 108.927 32.03C109.954 31.5167 111.109 31.26 112.392 31.26ZM132.861 45.4L137.096 31.47H143.466L136.536 51H129.151L122.221 31.47H128.626L132.861 45.4ZM164.395 40.92C164.395 41.48 164.36 42.0633 164.29 42.67H150.745C150.839 43.8833 151.224 44.8167 151.9 45.47C152.6 46.1 153.452 46.415 154.455 46.415C155.949 46.415 156.987 45.785 157.57 44.525H163.94C163.614 45.8083 163.019 46.9633 162.155 47.99C161.315 49.0167 160.254 49.8217 158.97 50.405C157.687 50.9883 156.252 51.28 154.665 51.28C152.752 51.28 151.049 50.8717 149.555 50.055C148.062 49.2383 146.895 48.0717 146.055 46.555C145.215 45.0383 144.795 43.265 144.795 41.235C144.795 39.205 145.204 37.4317 146.02 35.915C146.86 34.3983 148.027 33.2317 149.52 32.415C151.014 31.5983 152.729 31.19 154.665 31.19C156.555 31.19 158.235 31.5867 159.705 32.38C161.175 33.1733 162.319 34.305 163.135 35.775C163.975 37.245 164.395 38.96 164.395 40.92ZM158.27 39.345C158.27 38.3183 157.92 37.5017 157.22 36.895C156.52 36.2883 155.645 35.985 154.595 35.985C153.592 35.985 152.74 36.2767 152.04 36.86C151.364 37.4433 150.944 38.2717 150.78 39.345H158.27ZM175.498 51.28C173.794 51.28 172.278 50.9883 170.948 50.405C169.618 49.8217 168.568 49.0283 167.798 48.025C167.028 46.9983 166.596 45.855 166.503 44.595H172.418C172.488 45.2717 172.803 45.82 173.363 46.24C173.923 46.66 174.611 46.87 175.428 46.87C176.174 46.87 176.746 46.73 177.143 46.45C177.563 46.1467 177.773 45.7617 177.773 45.295C177.773 44.735 177.481 44.3267 176.898 44.07C176.314 43.79 175.369 43.4867 174.063 43.16C172.663 42.8333 171.496 42.495 170.563 42.145C169.629 41.7717 168.824 41.2 168.148 40.43C167.471 39.6367 167.133 38.575 167.133 37.245C167.133 36.125 167.436 35.11 168.043 34.2C168.673 33.2667 169.583 32.5317 170.773 31.995C171.986 31.4583 173.421 31.19 175.078 31.19C177.528 31.19 179.453 31.7967 180.853 33.01C182.276 34.2233 183.093 35.8333 183.303 37.84H177.773C177.679 37.1633 177.376 36.6267 176.863 36.23C176.373 35.8333 175.719 35.635 174.903 35.635C174.203 35.635 173.666 35.775 173.293 36.055C172.919 36.3117 172.733 36.6733 172.733 37.14C172.733 37.7 173.024 38.12 173.608 38.4C174.214 38.68 175.148 38.96 176.408 39.24C177.854 39.6133 179.033 39.9867 179.943 40.36C180.853 40.71 181.646 41.2933 182.323 42.11C183.023 42.9033 183.384 43.9767 183.408 45.33C183.408 46.4733 183.081 47.5 182.428 48.41C181.798 49.2967 180.876 49.9967 179.663 50.51C178.473 51.0233 177.084 51.28 175.498 51.28ZM197.954 45.925V51H194.909C192.739 51 191.048 50.475 189.834 49.425C188.621 48.3517 188.014 46.6133 188.014 44.21V36.44H185.634V31.47H188.014V26.71H193.999V31.47H197.919V36.44H193.999V44.28C193.999 44.8633 194.139 45.2833 194.419 45.54C194.699 45.7967 195.166 45.925 195.819 45.925H197.954Z" fill="black"/>
<path d="M225.015 34.2C224.572 33.3833 223.93 32.765 223.09 32.345C222.273 31.9017 221.305 31.68 220.185 31.68C218.248 31.68 216.697 32.3217 215.53 33.605C214.363 34.865 213.78 36.5567 213.78 38.68C213.78 40.9433 214.387 42.7167 215.6 44C216.837 45.26 218.528 45.89 220.675 45.89C222.145 45.89 223.382 45.5167 224.385 44.77C225.412 44.0233 226.158 42.95 226.625 41.55H219.03V37.14H232.05V42.705C231.607 44.1983 230.848 45.5867 229.775 46.87C228.725 48.1533 227.383 49.1917 225.75 49.985C224.117 50.7783 222.273 51.175 220.22 51.175C217.793 51.175 215.623 50.65 213.71 49.6C211.82 48.5267 210.338 47.045 209.265 45.155C208.215 43.265 207.69 41.1067 207.69 38.68C207.69 36.2533 208.215 34.095 209.265 32.205C210.338 30.2917 211.82 28.81 213.71 27.76C215.6 26.6867 217.758 26.15 220.185 26.15C223.125 26.15 225.598 26.8617 227.605 28.285C229.635 29.7083 230.977 31.68 231.63 34.2H225.015ZM244.255 51.28C242.342 51.28 240.615 50.8717 239.075 50.055C237.559 49.2383 236.357 48.0717 235.47 46.555C234.607 45.0383 234.175 43.265 234.175 41.235C234.175 39.2283 234.619 37.4667 235.505 35.95C236.392 34.41 237.605 33.2317 239.145 32.415C240.685 31.5983 242.412 31.19 244.325 31.19C246.239 31.19 247.965 31.5983 249.505 32.415C251.045 33.2317 252.259 34.41 253.145 35.95C254.032 37.4667 254.475 39.2283 254.475 41.235C254.475 43.2417 254.02 45.015 253.11 46.555C252.224 48.0717 250.999 49.2383 249.435 50.055C247.895 50.8717 246.169 51.28 244.255 51.28ZM244.255 46.1C245.399 46.1 246.367 45.68 247.16 44.84C247.977 44 248.385 42.7983 248.385 41.235C248.385 39.6717 247.989 38.47 247.195 37.63C246.425 36.79 245.469 36.37 244.325 36.37C243.159 36.37 242.19 36.79 241.42 37.63C240.65 38.4467 240.265 39.6483 240.265 41.235C240.265 42.7983 240.639 44 241.385 44.84C242.155 45.68 243.112 46.1 244.255 46.1ZM265.525 25.555L264.825 42.32H259.75L259.05 25.555H265.525ZM262.375 51.28C261.325 51.28 260.462 50.9767 259.785 50.37C259.132 49.74 258.805 48.97 258.805 48.06C258.805 47.1267 259.132 46.345 259.785 45.715C260.462 45.085 261.325 44.77 262.375 44.77C263.402 44.77 264.242 45.085 264.895 45.715C265.572 46.345 265.91 47.1267 265.91 48.06C265.91 48.97 265.572 49.74 264.895 50.37C264.242 50.9767 263.402 51.28 262.375 51.28Z" fill="#695CFE"/>
<path d="M38.3438 46.1367H39.9417C41.5396 46.1367 42.8671 44.7109 42.8671 42.99C42.8671 40.8513 42.105 40.4333 40.8513 39.9908L38.3683 39.1304V46.1367H38.3438Z" fill="#695CFE"/>
<path d="M36.4263 11.6659C22.8563 11.7151 11.8675 22.753 11.9167 36.323C11.9658 49.893 23.0037 60.8818 36.5737 60.8326C50.1437 60.7834 61.1325 49.7455 61.0833 36.1755C61.0342 22.6055 49.9963 11.6414 36.4263 11.6659ZM42.0558 36.4951C43.9733 37.1588 46.5546 38.5847 46.5546 42.9851C46.5546 46.7709 43.58 49.8193 39.9417 49.8193H38.3438V51.2451C38.3438 52.253 37.5079 53.0888 36.5 53.0888C35.4921 53.0888 34.6562 52.253 34.6562 51.2451V49.8193H33.7713C29.7396 49.8193 26.47 46.4268 26.47 42.2476C26.47 41.2397 27.3058 40.4039 28.3138 40.4039C29.3217 40.4039 30.1575 41.2397 30.1575 42.2476C30.1575 44.3863 31.78 46.1318 33.7713 46.1318H34.6562V37.8226L30.9442 36.4951C29.0267 35.8314 26.4454 34.4055 26.4454 30.0051C26.4454 26.2193 29.42 23.1709 33.0583 23.1709H34.6562V21.7451C34.6562 20.7372 35.4921 19.9014 36.5 19.9014C37.5079 19.9014 38.3438 20.7372 38.3438 21.7451V23.1709H39.2288C43.2604 23.1709 46.53 26.5634 46.53 30.7426C46.53 31.7505 45.6942 32.5863 44.6862 32.5863C43.6783 32.5863 42.8425 31.7505 42.8425 30.7426C42.8425 28.6039 41.22 26.8584 39.2288 26.8584H38.3438V35.1676L42.0558 36.4951Z" fill="#695CFE"/>
<path d="M30.1624 30.0296C30.1624 32.1684 30.9245 32.5863 32.1782 33.0288L34.6612 33.8892V26.8584H33.0632C31.4653 26.8584 30.1624 28.2842 30.1624 30.0296Z" fill="#695CFE"/>
</svg>
