<svg width="45" height="45" viewBox="0 0 45 45" fill="none" xmlns="http://www.w3.org/2000/svg">
<circle cx="22.5" cy="22.5" r="19.5" stroke="#35B9E3" stroke-width="6"/>
<path d="M23.6367 28.441H24.6217C25.6068 28.441 26.4251 27.5621 26.4251 26.5013C26.4251 25.1829 25.9553 24.9252 25.1824 24.6525L23.6519 24.1221V28.441H23.6367Z" fill="#3FB9DF"/>
<path d="M22.4547 7.19192C14.0896 7.22223 7.31574 14.0264 7.34605 22.3915C7.37636 30.7566 14.1806 37.5305 22.5456 37.5001C30.9107 37.4698 37.6846 30.6656 37.6543 22.3006C37.624 13.9355 30.8198 7.17677 22.4547 7.19192ZM25.925 22.4976C27.107 22.9067 28.6982 23.7857 28.6982 26.4983C28.6982 28.832 26.8645 30.7111 24.6217 30.7111H23.6367V31.59C23.6367 32.2114 23.1215 32.7266 22.5002 32.7266C21.8788 32.7266 21.3636 32.2114 21.3636 31.59V30.7111H20.8181C18.3328 30.7111 16.3173 28.6198 16.3173 26.0436C16.3173 25.4223 16.8325 24.9071 17.4538 24.9071C18.0752 24.9071 18.5904 25.4223 18.5904 26.0436C18.5904 27.362 19.5906 28.438 20.8181 28.438H21.3636V23.3159L19.0753 22.4976C17.8933 22.0884 16.3021 21.2095 16.3021 18.4969C16.3021 16.1632 18.1358 14.284 20.3786 14.284H21.3636V13.4051C21.3636 12.7838 21.8788 12.2685 22.5002 12.2685C23.1215 12.2685 23.6367 12.7838 23.6367 13.4051V14.284H24.1823C26.6675 14.284 28.683 16.3753 28.683 18.9515C28.683 19.5728 28.1678 20.0881 27.5465 20.0881C26.9252 20.0881 26.4099 19.5728 26.4099 18.9515C26.4099 17.6331 25.4097 16.5572 24.1823 16.5572H23.6367V21.6792L25.925 22.4976Z" fill="#3FB9DF"/>
<path d="M18.5934 18.512C18.5934 19.8304 19.0632 20.088 19.836 20.3608L21.3666 20.8912V16.5571H20.3816C19.3966 16.5571 18.5934 17.4361 18.5934 18.512Z" fill="#3FB9DF"/>
</svg>
