<svg width="688" height="508" viewBox="0 0 688 508" fill="none" xmlns="http://www.w3.org/2000/svg">
<g clip-path="url(#clip0_175_37)">
<path d="M583.676 507.375H554.656C554.226 506.595 553.826 505.795 553.456 504.985C550.116 497.835 548.706 489.855 547.356 482.035L545.166 469.335C552.166 474.425 559.162 479.512 566.156 484.595C568.436 486.255 570.766 487.985 572.956 489.855C577.566 493.765 581.546 498.285 583.106 504.025C583.186 504.345 583.266 504.665 583.326 504.985C583.492 505.774 583.609 506.572 583.676 507.375Z" fill="#F0F0F0"/>
<path d="M587.746 504.985C587.747 505.036 587.744 505.086 587.736 505.135C587.639 505.9 587.458 506.651 587.196 507.375H574.166C573.756 506.608 573.408 505.808 573.126 504.985C572.73 503.887 572.446 502.751 572.276 501.595C571.843 497.672 572.073 493.703 572.956 489.855C573.206 488.605 573.476 487.345 573.746 486.105L575.286 479.025L582.996 491.415C585.576 495.565 588.256 500.135 587.746 504.985Z" fill="#F0F0F0"/>
<path d="M686.286 36.5524H1.96246C1.69708 36.5465 1.44455 36.437 1.25894 36.2472C1.07333 36.0574 0.969391 35.8025 0.969391 35.5371C0.969391 35.2716 1.07333 35.0167 1.25894 34.827C1.44455 34.6372 1.69708 34.5276 1.96246 34.5217H686.286C686.551 34.5276 686.804 34.6372 686.989 34.827C687.175 35.0167 687.279 35.2716 687.279 35.5371C687.279 35.8025 687.175 36.0574 686.989 36.2472C686.804 36.437 686.551 36.5465 686.286 36.5524Z" fill="#CACACA"/>
<path d="M24.3176 22.3376C30.3515 22.3376 35.2429 17.3372 35.2429 11.1688C35.2429 5.00045 30.3515 0 24.3176 0C18.2837 0 13.3922 5.00045 13.3922 11.1688C13.3922 17.3372 18.2837 22.3376 24.3176 22.3376Z" fill="#3F3D56"/>
<path d="M62.0597 22.3376C68.0935 22.3376 72.985 17.3372 72.985 11.1688C72.985 5.00045 68.0935 0 62.0597 0C56.0258 0 51.1343 5.00045 51.1343 11.1688C51.1343 17.3372 56.0258 22.3376 62.0597 22.3376Z" fill="#3F3D56"/>
<path d="M99.8017 22.3376C105.836 22.3376 110.727 17.3372 110.727 11.1688C110.727 5.00045 105.836 0 99.8017 0C93.7678 0 88.8764 5.00045 88.8764 11.1688C88.8764 17.3372 93.7678 22.3376 99.8017 22.3376Z" fill="#3F3D56"/>
<path d="M663.673 6.83167H636.856C636.325 6.81994 635.82 6.60085 635.449 6.2213C635.078 5.84175 634.87 5.3319 634.87 4.80096C634.87 4.27002 635.078 3.76018 635.449 3.38063C635.82 3.00108 636.325 2.78198 636.856 2.77026H663.673C664.204 2.78198 664.709 3.00108 665.08 3.38063C665.451 3.76018 665.659 4.27002 665.659 4.80096C665.659 5.3319 665.451 5.84175 665.08 6.2213C664.709 6.60085 664.204 6.81994 663.673 6.83167Z" fill="#3F3D56"/>
<path d="M663.673 14.4466H636.856C636.325 14.4349 635.82 14.2158 635.449 13.8363C635.078 13.4567 634.87 12.9469 634.87 12.4159C634.87 11.885 635.078 11.3752 635.449 10.9956C635.82 10.6161 636.325 10.397 636.856 10.3853H663.673C664.204 10.397 664.709 10.6161 665.08 10.9956C665.451 11.3752 665.659 11.885 665.659 12.4159C665.659 12.9469 665.451 13.4567 665.08 13.8363C664.709 14.2158 664.204 14.4349 663.673 14.4466Z" fill="#3F3D56"/>
<path d="M663.673 22.0619H636.856C636.325 22.0502 635.82 21.8311 635.449 21.4515C635.078 21.072 634.87 20.5621 634.87 20.0312C634.87 19.5002 635.078 18.9904 635.449 18.6109C635.82 18.2313 636.325 18.0122 636.856 18.0005H663.673C664.204 18.0122 664.709 18.2313 665.08 18.6109C665.451 18.9904 665.659 19.5002 665.659 20.0312C665.659 20.5621 665.451 21.072 665.08 21.4515C664.709 21.8311 664.204 22.0502 663.673 22.0619Z" fill="#3F3D56"/>
<path d="M585.39 381.975H65.8016C60.3119 381.969 55.0489 379.786 51.1671 375.904C47.2854 372.022 45.1019 366.759 45.0958 361.269V102.681C45.102 97.1913 47.2856 91.9284 51.1673 88.0467C55.049 84.165 60.312 81.9815 65.8016 81.9753H585.39C590.88 81.9815 596.142 84.165 600.024 88.0467C603.906 91.9284 606.09 97.1913 606.096 102.681V361.269C606.09 366.759 603.906 372.022 600.024 375.904C596.143 379.786 590.88 381.969 585.39 381.975Z" fill="#F0F0F0"/>
<path d="M642.424 452.53H122.836C117.346 452.523 112.083 450.34 108.202 446.458C104.32 442.576 102.136 437.313 102.13 431.824V173.235C102.136 167.746 104.32 162.483 108.202 158.601C112.083 154.719 117.346 152.536 122.836 152.53H642.424C647.914 152.536 653.177 154.719 657.059 158.601C660.94 162.483 663.124 167.746 663.13 173.235V431.823C663.124 437.313 660.941 442.576 657.059 446.458C653.177 450.34 647.914 452.523 642.424 452.53Z" fill="white"/>
<path d="M642.424 452.53H122.836C117.346 452.523 112.083 450.34 108.202 446.458C104.32 442.576 102.136 437.313 102.13 431.824V173.235C102.136 167.746 104.32 162.483 108.202 158.601C112.083 154.719 117.346 152.536 122.836 152.53H642.424C647.914 152.536 653.177 154.719 657.059 158.601C660.94 162.483 663.124 167.746 663.13 173.235V431.823C663.124 437.313 660.941 442.576 657.059 446.458C653.177 450.34 647.914 452.523 642.424 452.53ZM122.836 155.53C118.142 155.535 113.641 157.402 110.322 160.721C107.003 164.041 105.136 168.541 105.13 173.235V431.823C105.135 436.518 107.003 441.018 110.322 444.338C113.641 447.657 118.142 449.524 122.836 449.53H642.424C647.119 449.524 651.619 447.657 654.938 444.338C658.258 441.018 660.125 436.518 660.13 431.823V173.235C660.125 168.541 658.258 164.041 654.938 160.721C651.619 157.402 647.119 155.535 642.424 155.53H122.836Z" fill="#E4E4E4"/>
<path d="M162.736 407.257H578.217V336.045C578.154 328.536 576.591 321.115 573.621 314.218C570.652 307.321 566.334 301.087 560.922 295.881L560.809 295.771C553.388 288.325 528.588 269.428 502.929 271.03C489.375 271.874 477.77 278.406 468.438 290.446C439.392 327.936 401.236 315.281 381.077 304.401C363.311 294.811 345.168 290.309 327.147 291.026C301.909 292.013 266.386 301.31 240.479 340C230.585 354.766 209.066 374.808 162.736 386.587L162.736 407.257Z" fill="#FA8B11"/>
<path d="M601.724 408.913H163.536C163.172 408.913 162.824 408.768 162.566 408.511C162.309 408.254 162.165 407.905 162.165 407.541V197.518C162.165 197.154 162.309 196.805 162.566 196.548C162.823 196.291 163.172 196.146 163.536 196.146C163.9 196.146 164.249 196.291 164.506 196.548C164.763 196.805 164.907 197.154 164.907 197.518V406.17H601.724C602.088 406.17 602.437 406.314 602.694 406.572C602.951 406.829 603.096 407.178 603.096 407.541C603.096 407.905 602.951 408.254 602.694 408.511C602.437 408.768 602.088 408.913 601.724 408.913Z" fill="#3F3D56"/>
<path d="M326.231 301.411C330.775 301.411 334.459 297.727 334.459 293.183C334.459 288.639 330.775 284.955 326.231 284.955C321.687 284.955 318.003 288.639 318.003 293.183C318.003 297.727 321.687 301.411 326.231 301.411Z" fill="#3F3D56"/>
<path d="M487.608 279.894C492.152 279.894 495.836 276.21 495.836 271.666C495.836 267.122 492.152 263.438 487.608 263.438C483.064 263.438 479.38 267.122 479.38 271.666C479.38 276.21 483.064 279.894 487.608 279.894Z" fill="#3F3D56"/>
<path d="M406.919 324.273C411.464 324.273 415.147 320.589 415.147 316.045C415.147 311.5 411.464 307.817 406.919 307.817C402.375 307.817 398.691 311.5 398.691 316.045C398.691 320.589 402.375 324.273 406.919 324.273Z" fill="#3F3D56"/>
<path d="M245.542 336.376C250.086 336.376 253.77 332.692 253.77 328.148C253.77 323.604 250.086 319.92 245.542 319.92C240.998 319.92 237.314 323.604 237.314 328.148C237.314 332.692 240.998 336.376 245.542 336.376Z" fill="#3F3D56"/>
<path d="M568.297 309.48C572.841 309.48 576.525 305.796 576.525 301.252C576.525 296.707 572.841 293.024 568.297 293.024C563.752 293.024 560.069 296.707 560.069 301.252C560.069 305.796 563.752 309.48 568.297 309.48Z" fill="#3F3D56"/>
<path d="M663.616 327.133C662.708 326.258 662.002 325.194 661.549 324.017C661.097 322.839 660.907 321.577 660.995 320.319C661.083 319.06 661.446 317.836 662.057 316.733C662.669 315.63 663.516 314.675 664.537 313.934L655.666 284.582L670.937 289.131L677.02 316.307C678.15 318.105 678.582 320.255 678.233 322.35C677.884 324.445 676.779 326.339 675.127 327.673C673.475 329.008 671.39 329.69 669.269 329.59C667.147 329.491 665.136 328.617 663.616 327.133Z" fill="#9E616A"/>
<path d="M519.622 152.588C519.46 153.839 519.575 155.111 519.957 156.313C520.34 157.515 520.981 158.618 521.836 159.546C522.692 160.473 523.74 161.201 524.907 161.68C526.074 162.158 527.332 162.375 528.592 162.315L540.018 190.77L549.093 177.673L536.852 152.659C536.61 150.549 535.603 148.601 534.021 147.184C532.439 145.767 530.392 144.979 528.268 144.971C526.145 144.962 524.091 145.733 522.498 147.137C520.904 148.541 519.881 150.48 519.622 152.588Z" fill="#9E616A"/>
<path d="M648.441 494.812H637.921L632.917 454.235L648.443 454.236L648.441 494.812Z" fill="#9E616A"/>
<path d="M651.124 505.01L617.204 505.008V504.579C617.204 501.078 618.595 497.72 621.071 495.244C623.547 492.768 626.905 491.377 630.407 491.377L651.125 491.378L651.124 505.01Z" fill="#2F2E41"/>
<path d="M614.016 494.478L603.987 491.303L611.462 451.107L626.264 455.794L614.016 494.478Z" fill="#9E616A"/>
<path d="M613.497 505.01L581.158 494.771L581.288 494.362C582.345 491.024 584.684 488.243 587.792 486.629C590.9 485.016 594.521 484.703 597.86 485.76L617.612 492.013L613.497 505.01Z" fill="#2F2E41"/>
<path d="M601.557 296.496C601.557 296.496 585.948 321.005 591.464 342.879C596.98 364.754 602.986 406.799 602.986 406.799L632.892 477.972L655.185 477.062L633.046 393.148L633.922 337.042C633.922 337.042 649.309 310.227 646.312 301.88C643.316 293.533 601.557 296.496 601.557 296.496Z" fill="#2F2E41"/>
<path d="M652.551 305.259C652.551 305.259 654.471 329.572 648.464 339.869C642.458 350.166 636.058 389.357 636.058 389.357L625.849 467.74L604.702 460.858L622.734 373.04L636.907 303.961L652.551 305.259Z" fill="#2F2E41"/>
<path d="M660.048 187.56L643.549 176.219L618.442 175.49L609.698 184.062L596.355 190.875L595.119 301.88C595.119 301.88 635.076 321.032 656.572 311.787L666.913 225.315C671.203 208.154 660.048 187.56 660.048 187.56Z" fill="#3F3D56"/>
<path d="M599.706 220.54H555.697L526.783 170.769L545.584 163.322L561.506 191.646L584.552 189.56L598.941 188.864C601.247 188.752 603.549 189.146 605.687 190.017C607.825 190.889 609.747 192.217 611.318 193.908C612.889 195.6 614.071 197.614 614.783 199.811C615.494 202.007 615.717 204.332 615.435 206.623C614.96 210.462 613.099 213.994 610.203 216.557C607.306 219.119 603.574 220.536 599.706 220.54Z" fill="#3F3D56"/>
<path d="M633.043 166.349C645.066 166.349 654.812 156.602 654.812 144.579C654.812 132.556 645.066 122.81 633.043 122.81C621.02 122.81 611.273 132.556 611.273 144.579C611.273 156.602 621.02 166.349 633.043 166.349Z" fill="#9E616A"/>
<path d="M659.273 139.626C658.605 134.847 655.368 130.309 650.764 128.861C648.936 123.551 644.092 119.641 638.741 117.937C633.785 116.357 628.445 116.467 623.558 118.249C618.671 120.031 614.514 123.385 611.739 127.785C611.33 128.429 610.071 130.011 610.106 130.779C610.15 131.755 611.643 132.763 612.393 133.378C614.252 134.815 616.257 136.052 618.375 137.07C626.203 141.128 623.597 147.506 623.491 154.734C623.439 158.246 624.612 161.245 627.606 163.251C631.929 166.146 638.114 164.994 642.817 163.832C648.154 162.514 652.59 157.826 655.634 153.306C658.329 149.303 659.942 144.406 659.273 139.626Z" fill="#2F2E41"/>
<path d="M659.056 215.476L677.516 306.933L650.302 308.422L659.056 215.476Z" fill="#3F3D56"/>
<path d="M678.116 506.175C678.116 506.332 678.086 506.488 678.027 506.633C677.967 506.778 677.88 506.91 677.769 507.022C677.659 507.133 677.528 507.222 677.383 507.282C677.238 507.343 677.083 507.375 676.926 507.375H535.626C535.309 507.375 535.005 507.249 534.781 507.025C534.557 506.801 534.431 506.497 534.431 506.18C534.431 505.863 534.557 505.559 534.781 505.335C535.005 505.111 535.309 504.985 535.626 504.985H676.926C677.241 504.986 677.543 505.112 677.766 505.335C677.989 505.558 678.115 505.86 678.116 506.175Z" fill="#CACACA"/>
</g>
<defs>
<clipPath id="clip0_175_37">
<rect width="686.31" height="507.375" fill="white" transform="translate(0.969269)"/>
</clipPath>
</defs>
</svg>
