<svg width="760" height="476" viewBox="0 0 760 476" fill="none" xmlns="http://www.w3.org/2000/svg">
<g clip-path="url(#clip0_207_24)">
<path d="M635.23 389.5H123.813C112.876 389.5 103.977 380.426 103.977 369.271V306.5H655.066V369.271C655.066 380.426 646.168 389.5 635.23 389.5Z" fill="#E6E6E6"/>
<path d="M445.711 379H315.293V474H445.711V379Z" fill="#E6E6E6"/>
<path d="M453.555 462H307.449V474H453.555V462Z" fill="#E6E6E6"/>
<path d="M654.575 333H103.977V13.8818C103.977 6.22754 110.084 0 117.59 0H640.963C648.469 0 654.575 6.22754 654.575 13.8818V333Z" fill="#3F3D56"/>
<path d="M380.502 11.5C382.668 11.5 384.424 9.70914 384.424 7.5C384.424 5.29086 382.668 3.5 380.502 3.5C378.336 3.5 376.58 5.29086 376.58 7.5C376.58 9.70914 378.336 11.5 380.502 11.5Z" fill="white"/>
<path d="M641.337 14.5H116.725V315.5H641.337V14.5Z" fill="white"/>
<path d="M579.938 241.911C604.641 241.911 624.666 221.489 624.666 196.297C624.666 171.105 604.641 150.682 579.938 150.682C555.236 150.682 535.21 171.105 535.21 196.297C535.21 221.489 555.236 241.911 579.938 241.911Z" fill="#3DB9E0"/>
<path d="M759.027 474.297C759.027 474.761 758.658 475.137 758.203 475.137H0.0161743V473.457H758.203C758.658 473.457 759.027 473.833 759.027 474.297Z" fill="#E6E6E6"/>
<path d="M128.426 189.663L122.774 209.835L145.381 211.276L143.968 187.501L128.426 189.663Z" fill="#FFB6B6"/>
<path d="M222.343 272.011C227.708 273.878 233.001 272.57 234.166 269.088C235.331 265.606 231.927 261.27 226.56 259.403C224.426 258.626 222.141 258.383 219.896 258.692L197.068 251.071L193.79 262.072L216.642 268.417C218.234 270.062 220.189 271.294 222.343 272.011Z" fill="#FFB6B6"/>
<path d="M146.593 205.362C146.593 205.362 132.442 222.723 140.628 229.906C148.815 237.089 185.373 263.681 185.373 263.681L199.625 265.944L203.271 251.894L171.088 227.575L146.593 205.362Z" fill="#3DB9E0"/>
<path d="M184.087 390.18L191.951 419.902L204.442 417.543L201.666 386.878L184.087 390.18Z" fill="#FFB6B6"/>
<path d="M193.802 418.015L189.176 418.958L185.475 431.696C185.475 431.696 191.489 434.055 191.489 438.772C191.489 443.49 193.802 446.792 203.054 446.321C212.306 445.849 213.231 446.321 213.231 442.547C213.231 438.772 206.292 418.958 206.292 418.958C206.292 418.958 206.755 410.938 201.204 411.41C195.652 411.882 193.802 418.015 193.802 418.015Z" fill="#2F2E41"/>
<path d="M141.798 389.718L142.334 420.498L155.012 421.309L159.636 390.877L141.798 389.718Z" fill="#FFB6B6"/>
<path d="M144.579 419.126L139.867 418.894L133.238 430.33C133.238 430.33 138.509 434.11 137.383 438.686C136.257 443.262 137.713 447.039 146.8 448.878C155.886 450.716 156.671 451.403 157.571 447.742C158.472 444.081 156.469 423.141 156.469 423.141C156.469 423.141 158.831 415.477 153.334 414.557C147.837 413.637 144.579 419.126 144.579 419.126Z" fill="#2F2E41"/>
<path d="M147.078 205.719L122.098 203.832L116.546 210.909C116.546 210.909 113.771 258.557 115.621 263.275C117.472 267.993 116.084 294.883 116.084 294.883L179.058 290.402L165.12 256.198L165.582 236.384L153.092 212.324L147.078 205.719Z" fill="#3DB9E0"/>
<path d="M118.859 284.976C118.859 284.976 108.682 300.073 112.383 308.093C116.084 316.113 141.187 362.68 141.187 362.68L137.949 406.083L160.154 404.196L163.854 357.491L148.466 319.415L151.242 315.169L174.372 343.947L182.699 393.955L204.904 391.124L192.876 318L178.819 289.816L118.859 284.976Z" fill="#2F2E41"/>
<path d="M116.685 176.828C121.422 176.828 125.262 172.913 125.262 168.082C125.262 163.252 121.422 159.336 116.685 159.336C111.948 159.336 108.109 163.252 108.109 168.082C108.109 172.913 111.948 176.828 116.685 176.828Z" fill="#2F2E41"/>
<path d="M136.491 200.507C146.807 200.507 155.169 191.979 155.169 181.46C155.169 170.94 146.807 162.412 136.491 162.412C126.176 162.412 117.814 170.94 117.814 181.46C117.814 191.979 126.176 200.507 136.491 200.507Z" fill="#FFB6B6"/>
<path d="M130.569 202.342C128.584 203.414 122.999 199.477 121 194.201C119.714 190.807 116.588 191.372 114.594 187.139C113.431 184.673 116.902 182.26 116.33 180.128C115.292 176.264 116.593 172.808 116.759 172.384C118.189 168.729 120.297 168.814 121.997 164.559C123.02 161.997 122.364 161.697 123.224 160.386C125.707 156.604 132.911 156.46 137.992 158.249C139.75 158.868 143.985 155.551 147.423 157.954C151.474 160.785 154.168 168.944 153.548 170.439C153.172 171.348 151.075 170.422 146.713 171.121C142.675 171.769 148.005 174.845 143.461 175.894C138.087 177.134 136.468 176.002 134.979 177.736C133.405 179.569 133.114 183.278 134.55 185.48C135.263 186.573 136.182 186.958 136.067 187.719C135.857 189.107 134.648 188.352 134.251 189.825C133.79 191.538 137.617 193.784 137.285 194.302C137.217 194.407 136.931 194.52 133.193 193.051C131.701 192.464 131.126 191.958 130.958 192.145C130.687 192.449 129.345 195.49 130.87 196.784C133.243 198.798 131.598 199.597 132.68 201.174C133.796 202.8 131.831 201.66 130.569 202.342Z" fill="#2F2E41"/>
<path d="M134.943 312.396C137.923 317.313 142.827 319.73 145.896 317.795C148.964 315.86 149.034 310.306 146.052 305.387C144.887 303.406 143.273 301.738 141.347 300.523L128.459 279.851L119.076 286.226L132.777 305.927C132.982 308.229 133.725 310.447 134.943 312.396Z" fill="#FFB6B6"/>
<path d="M117.934 211.852C117.934 211.852 96.1919 216.098 98.0423 226.949C99.8927 237.799 111.573 282.017 111.573 282.017L121.172 292.996L132.738 284.504L123.023 244.876L117.934 211.852Z" fill="#3DB9E0"/>
<path d="M631.487 220.914C630.632 219.443 626.933 221.018 626.253 219.683C625.575 218.354 629.012 216.328 630.975 211.7C631.329 210.866 633.561 205.607 631.909 203.984C628.778 200.908 614.451 213.602 609.437 209.448C608.336 208.536 607.567 206.716 604.237 203.761C602.912 202.586 602.111 202.055 601.336 202.253C600.236 202.533 600.148 204.034 598.969 206.987C597.2 211.415 596.153 211.147 595.122 214.68C594.357 217.302 594.532 218.827 593.632 219.124C592.357 219.544 591.185 216.763 589.57 217.012C587.922 217.266 586.926 220.505 586.611 222.929C586.02 227.48 587.659 230.482 588.567 233.64C589.554 237.071 590.14 242.289 587.861 249.676L565.301 314.498C570.281 301.196 584.702 264.734 590.762 251.185C592.511 247.273 594.443 243.306 598.409 241.74C602.227 240.232 607.471 241.132 614.156 239.49C614.937 239.298 617.104 238.736 617.377 237.436C617.602 236.362 616.328 235.762 616.523 234.756C616.786 233.406 619.292 233.389 622.372 231.832C624.544 230.734 625.897 229.428 627.06 228.305C627.411 227.966 632.625 222.871 631.487 220.914Z" fill="#E6E6E6"/>
<path d="M542.729 255.038C541.775 255.042 541.465 257.348 540.627 257.303C539.791 257.259 539.808 254.954 538.147 252.636C537.848 252.218 535.961 249.584 534.703 249.942C532.319 250.622 534.295 261.456 530.849 262.767C530.093 263.055 528.995 262.914 526.612 263.729C525.664 264.053 525.177 264.301 525.049 264.746C524.866 265.377 525.564 265.854 526.644 267.296C528.265 269.459 527.834 269.906 529.237 271.441C530.278 272.581 531.062 272.933 530.945 273.47C530.78 274.229 529.103 274.013 528.757 274.893C528.404 275.791 529.675 277.225 530.751 278.082C532.771 279.69 534.689 279.736 536.47 280.193C538.406 280.689 541.087 281.901 543.984 285.173L568.672 315.168C563.707 308.838 550.32 291.099 545.547 284.156C544.17 282.152 542.817 280.041 543.208 277.604C543.584 275.258 545.53 272.893 546.669 269.073C546.802 268.626 547.156 267.38 546.61 266.868C546.158 266.445 545.501 266.91 545.073 266.522C544.5 266.001 545.215 264.742 545.354 262.751C545.452 261.347 545.214 260.293 545.009 259.387C544.947 259.113 543.999 255.033 542.729 255.038Z" fill="#E6E6E6"/>
<path d="M561.768 259.397L561.193 254.163L561.455 253.766C562.671 251.931 563.291 250.139 563.298 248.438C563.299 248.168 563.287 247.897 563.274 247.622C563.225 246.53 563.163 245.173 563.857 243.591C564.246 242.709 565.339 240.667 566.982 240.919C567.424 240.982 567.759 241.19 568.013 241.432C568.05 241.372 568.088 241.311 568.129 241.245C568.641 240.449 569.046 240.108 569.437 239.779C569.737 239.527 570.046 239.266 570.532 238.65C570.745 238.379 570.911 238.142 571.051 237.942C571.476 237.338 572.031 236.618 573.01 236.63C574.056 236.681 574.604 237.563 574.967 238.147C575.615 239.188 575.909 239.939 576.103 240.436C576.174 240.618 576.254 240.823 576.295 240.886C576.632 241.392 579.372 240.919 580.404 240.747C582.723 240.353 584.729 240.012 585.555 241.503C586.148 242.57 585.708 243.98 584.208 245.807C583.741 246.376 583.244 246.808 582.803 247.147C583.169 247.369 583.496 247.71 583.628 248.246C583.941 249.515 582.871 250.786 580.451 252.03C579.85 252.34 579.041 252.755 577.907 252.955C577.373 253.048 576.892 253.071 576.481 253.083C576.472 253.326 576.417 253.589 576.272 253.859C575.847 254.655 574.962 255.035 573.629 254.944C572.161 254.865 570.953 254.58 569.888 254.329C568.957 254.112 568.155 253.928 567.526 253.971C566.359 254.067 565.459 255.019 564.403 256.255L561.768 259.397Z" fill="#E6E6E6"/>
<path d="M564.434 228.233L559.616 230.127L559.173 229.969C557.124 229.235 555.267 229.079 553.652 229.503C553.395 229.57 553.142 229.651 552.884 229.733C551.861 230.059 550.589 230.464 548.912 230.181C547.977 230.021 545.763 229.461 545.586 227.776C545.534 227.323 545.645 226.941 545.811 226.629C545.744 226.607 545.677 226.585 545.604 226.561C544.719 226.258 544.293 225.945 543.882 225.643C543.566 225.412 543.241 225.172 542.533 224.849C542.222 224.708 541.955 224.604 541.73 224.517C541.049 224.251 540.225 223.886 539.989 222.917C539.771 221.872 540.469 221.108 540.931 220.602C541.754 219.699 542.391 219.219 542.814 218.9C542.969 218.785 543.143 218.653 543.192 218.597C543.586 218.136 542.443 215.553 542.018 214.579C541.056 212.392 540.224 210.499 541.429 209.306C542.29 208.451 543.739 208.527 545.853 209.543C546.511 209.859 547.046 210.24 547.48 210.589C547.598 210.172 547.838 209.763 548.313 209.496C549.437 208.866 550.914 209.599 552.708 211.671C553.155 212.185 553.753 212.878 554.23 213.946C554.454 214.449 554.598 214.917 554.714 215.32C554.947 215.267 555.21 215.255 555.503 215.33C556.366 215.547 556.95 216.323 557.202 217.662C557.5 219.129 557.536 220.393 557.568 221.508C557.598 222.481 557.627 223.319 557.827 223.929C558.214 225.056 559.346 225.702 560.786 226.429L564.434 228.233Z" fill="#E6E6E6"/>
<path d="M561.768 212.813L561.193 207.578L561.455 207.182C562.671 205.347 563.291 203.555 563.298 201.854C563.299 201.583 563.287 201.313 563.274 201.038C563.225 199.946 563.163 198.589 563.857 197.006C564.246 196.124 565.339 194.082 566.982 194.335C567.424 194.398 567.759 194.605 568.013 194.848C568.05 194.787 568.088 194.727 568.129 194.661C568.641 193.865 569.046 193.524 569.437 193.195C569.737 192.942 570.046 192.682 570.532 192.065C570.745 191.795 570.911 191.557 571.051 191.358C571.476 190.754 572.031 190.033 573.01 190.046C574.056 190.097 574.604 190.979 574.967 191.562C575.615 192.604 575.909 193.354 576.103 193.852C576.174 194.034 576.254 194.239 576.295 194.302C576.632 194.808 579.372 194.335 580.404 194.163C582.723 193.769 584.729 193.428 585.555 194.919C586.148 195.985 585.708 197.396 584.208 199.223C583.741 199.792 583.244 200.224 582.803 200.562C583.169 200.785 583.496 201.126 583.628 201.662C583.941 202.931 582.871 204.202 580.451 205.445C579.85 205.756 579.041 206.171 577.907 206.37C577.373 206.464 576.892 206.487 576.481 206.499C576.472 206.742 576.417 207.005 576.272 207.275C575.847 208.071 574.962 208.45 573.629 208.359C572.161 208.281 570.953 207.995 569.888 207.745C568.957 207.528 568.155 207.343 567.526 207.386C566.359 207.482 565.459 208.435 564.403 209.671L561.768 212.813Z" fill="#E6E6E6"/>
<path d="M567.019 314.412L565.943 313.725L564.689 313.872C564.67 313.753 564.601 313.48 564.499 313.053C563.937 310.712 562.226 303.59 560.799 292.374C559.802 284.544 559.238 276.495 559.122 268.445C559.005 260.383 559.38 254.279 559.68 249.373C559.906 245.673 560.181 242.15 560.452 238.718C561.17 229.549 561.848 220.888 561.344 211.299C561.232 209.158 560.998 204.702 558.445 199.961C556.965 197.211 554.925 194.77 552.382 192.708L553.963 190.681C556.77 192.96 559.027 195.665 560.671 198.718C563.501 203.975 563.756 208.83 563.879 211.162C564.392 220.92 563.707 229.665 562.981 238.923C562.713 242.342 562.438 245.85 562.212 249.535C561.915 254.395 561.544 260.446 561.66 268.404C561.774 276.358 562.331 284.309 563.314 292.04C564.724 303.115 566.411 310.131 566.964 312.436C567.259 313.667 567.321 313.925 567.019 314.412Z" fill="#E6E6E6"/>
<path d="M547.728 196.82C547.624 196.82 547.519 196.817 547.412 196.809C545.251 196.691 543.25 195.371 541.463 192.889C540.625 191.722 540.197 190.39 539.342 187.734C539.209 187.324 538.565 185.247 538.173 182.388C537.916 180.521 537.949 179.74 538.312 179.05C538.715 178.281 539.366 177.746 540.1 177.384C540.068 177.136 540.094 176.881 540.199 176.621C540.631 175.542 541.781 175.683 542.403 175.751C542.718 175.792 543.111 175.845 543.535 175.822C544.201 175.789 544.559 175.587 545.102 175.284C545.621 174.993 546.267 174.632 547.225 174.432C549.113 174.03 550.696 174.576 551.217 174.756C553.962 175.688 555.315 177.864 556.881 180.384C557.194 180.89 558.265 182.729 558.973 185.252C559.484 187.071 559.412 187.88 559.258 188.482C558.946 189.718 558.209 190.425 556.336 191.987C554.381 193.622 553.399 194.441 552.557 194.939C550.595 196.094 549.364 196.82 547.728 196.82Z" fill="#E6E6E6"/>
<path d="M435.771 268.703H236.648C228.632 268.703 222.111 262.052 222.111 253.877V100.325C222.111 92.1511 228.632 85.5 236.648 85.5H435.771C443.788 85.5 450.309 92.1511 450.309 100.325V253.877C450.309 262.052 443.788 268.703 435.771 268.703Z" fill="white"/>
<path d="M435.771 268.703H236.648C228.632 268.703 222.111 262.052 222.111 253.877V100.325C222.111 92.1511 228.632 85.5 236.648 85.5H435.771C443.788 85.5 450.309 92.1511 450.309 100.325V253.877C450.309 262.052 443.788 268.703 435.771 268.703ZM236.648 87.9757C229.971 87.9757 224.538 93.5158 224.538 100.325V253.877C224.538 260.687 229.971 266.227 236.648 266.227H435.771C442.449 266.227 447.881 260.687 447.881 253.877V100.325C447.881 93.5158 442.449 87.9757 435.771 87.9757H236.648Z" fill="#3F3D56"/>
<path d="M413.894 104.068C415.905 104.068 417.536 102.405 417.536 100.354C417.536 98.3032 415.905 96.6406 413.894 96.6406C411.883 96.6406 410.253 98.3032 410.253 100.354C410.253 102.405 411.883 104.068 413.894 104.068Z" fill="#3F3D56"/>
<path d="M423.605 104.068C425.616 104.068 427.246 102.405 427.246 100.354C427.246 98.3032 425.616 96.6406 423.605 96.6406C421.594 96.6406 419.963 98.3032 419.963 100.354C419.963 102.405 421.594 104.068 423.605 104.068Z" fill="#3F3D56"/>
<path d="M433.315 104.068C435.327 104.068 436.957 102.405 436.957 100.354C436.957 98.3032 435.327 96.6406 433.315 96.6406C431.304 96.6406 429.674 98.3032 429.674 100.354C429.674 102.405 431.304 104.068 433.315 104.068Z" fill="#3F3D56"/>
<path d="M242.745 160.39C241.741 160.39 240.925 161.223 240.925 162.247C240.925 162.746 241.114 163.208 241.457 163.549C241.803 163.911 242.256 164.104 242.745 164.104H430.888C431.892 164.104 432.708 163.271 432.708 162.247C432.708 161.748 432.519 161.286 432.176 160.945C431.83 160.584 431.377 160.39 430.888 160.39H242.745Z" fill="#E6E6E6"/>
<path d="M396.901 159.771V164.723H242.745C242.078 164.723 241.471 164.45 241.034 163.992C240.585 163.547 240.318 162.928 240.318 162.247C240.318 160.885 241.41 159.771 242.745 159.771H396.901Z" fill="#3DB9E0"/>
<path d="M427.853 150.487H403.577C400.9 150.487 398.722 148.267 398.722 145.536C398.722 142.805 400.9 140.584 403.577 140.584H427.853C430.53 140.584 432.708 142.805 432.708 145.536C432.708 148.267 430.53 150.487 427.853 150.487Z" fill="#E6E6E6"/>
<path d="M268.842 124.492H244.566C241.889 124.492 239.711 122.272 239.711 119.541C239.711 116.81 241.889 114.59 244.566 114.59H268.842C271.519 114.59 273.698 116.81 273.698 119.541C273.698 122.272 271.519 124.492 268.842 124.492Z" fill="#E6E6E6"/>
<path d="M242.745 216.094C241.741 216.094 240.925 216.927 240.925 217.951C240.925 218.45 241.114 218.912 241.457 219.252C241.803 219.614 242.256 219.807 242.745 219.807H430.888C431.892 219.807 432.708 218.974 432.708 217.951C432.708 217.451 432.519 216.99 432.176 216.649C431.83 216.287 431.377 216.094 430.888 216.094H242.745Z" fill="#E6E6E6"/>
<path d="M303.436 215.475V220.426H242.745C242.078 220.426 241.471 220.154 241.034 219.696C240.585 219.25 240.318 218.631 240.318 217.951C240.318 216.589 241.41 215.475 242.745 215.475H303.436Z" fill="#3DB9E0"/>
<path d="M427.853 206.191H403.577C400.9 206.191 398.722 203.97 398.722 201.24C398.722 198.509 400.9 196.288 403.577 196.288H427.853C430.53 196.288 432.708 198.509 432.708 201.24C432.708 203.97 430.53 206.191 427.853 206.191Z" fill="#E6E6E6"/>
</g>
<defs>
<clipPath id="clip0_207_24">
<rect width="759.01" height="475.137" fill="white" transform="translate(0.0161743)"/>
</clipPath>
</defs>
</svg>
